<svg width="41" height="30" viewBox="0 0 41 30" fill="none" xmlns="http://www.w3.org/2000/svg">
<path d="M39.8047 6.48532C39.8047 6.48532 39.4135 3.56547 38.2089 2.28339C36.6835 0.595998 34.9782 0.587726 34.196 0.488468C28.5951 0.0583494 20.186 0.0583496 20.186 0.0583496H20.1703C20.1703 0.0583496 11.7612 0.0583494 6.16034 0.488468C5.3781 0.587726 3.67281 0.595998 2.14743 2.28339C0.942776 3.56547 0.559477 6.48532 0.559477 6.48532C0.559477 6.48532 0.15271 9.91799 0.15271 13.3424V16.5517C0.15271 19.9762 0.551654 23.4088 0.551654 23.4088C0.551654 23.4088 0.942776 26.3287 2.13961 27.6108C3.66498 29.2982 5.66753 29.2403 6.55929 29.4222C9.76649 29.7448 20.1782 29.8441 20.1782 29.8441C20.1782 29.8441 28.5951 29.8275 34.196 29.4057C34.9782 29.3064 36.6835 29.2982 38.2089 27.6108C39.4135 26.3287 39.8047 23.4088 39.8047 23.4088C39.8047 23.4088 40.2036 19.9844 40.2036 16.5517V13.3424C40.2036 9.91799 39.8047 6.48532 39.8047 6.48532ZM16.0401 20.4476V8.54492L26.8585 14.517L16.0401 20.4476Z" fill="white"/>
</svg>
