<svg width="41" height="43" viewBox="0 0 41 43" fill="none" xmlns="http://www.w3.org/2000/svg">
<path d="M20.025 0C8.96561 0 0 9.4805 0 21.1751C0 31.1053 6.46569 39.4382 15.1878 41.7268V27.6462H11.0586V21.1751H15.1878V18.3867C15.1878 11.1796 18.2725 7.83901 24.964 7.83901C26.2328 7.83901 28.4219 8.10243 29.3175 8.365V14.2305C28.8449 14.178 28.0238 14.1517 27.0042 14.1517C23.7209 14.1517 22.4521 15.4671 22.4521 18.8865V21.1751H28.9931L27.8693 27.6462H22.4521V42.1951C32.3677 40.9289 40.0509 32.0015 40.0509 21.1751C40.0501 9.4805 31.0845 0 20.025 0Z" fill="white"/>
</svg>
