<svg width="41" height="43" viewBox="0 0 41 43" fill="none" xmlns="http://www.w3.org/2000/svg">
<path d="M20.139 3.81317C25.4927 3.81317 26.1267 3.83798 28.2321 3.93724C30.1889 4.02823 31.2455 4.37563 31.95 4.66513C32.8814 5.04562 33.5545 5.50883 34.2511 6.24499C34.9555 6.98943 35.386 7.69251 35.7461 8.67682C36.02 9.42125 36.3488 10.5462 36.4349 12.6058C36.5288 14.8391 36.5523 15.5091 36.5523 21.1585C36.5523 26.8162 36.5288 27.4862 36.4349 29.7113C36.3488 31.7792 36.02 32.8958 35.7461 33.6402C35.386 34.6246 34.9477 35.3359 34.2511 36.0721C33.5467 36.8165 32.8814 37.2714 31.95 37.6519C31.2455 37.9414 30.1811 38.2888 28.2321 38.3798C26.1188 38.4791 25.4848 38.5039 20.139 38.5039C14.7853 38.5039 14.1513 38.4791 12.0458 38.3798C10.0891 38.2888 9.03244 37.9414 8.32801 37.6519C7.39659 37.2714 6.72347 36.8082 6.02686 36.0721C5.32243 35.3276 4.89195 34.6246 4.5319 33.6402C4.25796 32.8958 3.92922 31.7709 3.84312 29.7113C3.7492 27.478 3.72572 26.808 3.72572 21.1585C3.72572 15.5008 3.7492 14.8308 3.84312 12.6058C3.92922 10.5379 4.25796 9.42125 4.5319 8.67682C4.89195 7.69251 5.33026 6.98116 6.02686 6.24499C6.7313 5.50056 7.39659 5.04562 8.32801 4.66513C9.03244 4.37563 10.0969 4.02823 12.0458 3.93724C14.1513 3.83798 14.7853 3.81317 20.139 3.81317ZM20.139 0C14.6992 0 14.0183 0.0248145 11.8815 0.124073C9.75253 0.223331 8.28887 0.587277 7.0209 1.10838C5.69813 1.6543 4.57887 2.37392 3.46743 3.55675C2.34816 4.73131 1.66721 5.91413 1.15063 7.30375C0.657525 8.652 0.313136 10.1905 0.219212 12.4404C0.125288 14.7067 0.101807 15.4264 0.101807 21.1751C0.101807 26.9238 0.125288 27.6434 0.219212 29.9015C0.313136 32.1514 0.657525 33.6981 1.15063 35.0381C1.66721 36.436 2.34816 37.6188 3.46743 38.7934C4.57887 39.9679 5.69813 40.6958 7.01307 41.2335C8.28887 41.7546 9.7447 42.1185 11.8737 42.2178C14.0104 42.3171 14.6914 42.3419 20.1312 42.3419C25.5709 42.3419 26.2519 42.3171 28.3887 42.2178C30.5176 42.1185 31.9813 41.7546 33.2493 41.2335C34.5642 40.6958 35.6835 39.9679 36.7949 38.7934C37.9063 37.6188 38.5951 36.436 39.1039 35.0464C39.597 33.6981 39.9414 32.1596 40.0353 29.9098C40.1292 27.6517 40.1527 26.932 40.1527 21.1833C40.1527 15.4346 40.1292 14.715 40.0353 12.4569C39.9414 10.207 39.597 8.66027 39.1039 7.32029C38.6108 5.91413 37.9298 4.73131 36.8106 3.55675C35.6991 2.3822 34.5799 1.6543 33.2649 1.11665C31.9891 0.595549 30.5333 0.231602 28.4043 0.132344C26.2597 0.0248145 25.5788 0 20.139 0Z" fill="white"/>
<path d="M20.1389 10.2981C14.4564 10.2981 9.84631 15.17 9.84631 21.1751C9.84631 27.1803 14.4564 32.0522 20.1389 32.0522C25.8213 32.0522 30.4314 27.1803 30.4314 21.1751C30.4314 15.17 25.8213 10.2981 20.1389 10.2981ZM20.1389 28.2307C16.4523 28.2307 13.4624 25.071 13.4624 21.1751C13.4624 17.2793 16.4523 14.1195 20.1389 14.1195C23.8254 14.1195 26.8153 17.2793 26.8153 21.1751C26.8153 25.071 23.8254 28.2307 20.1389 28.2307Z" fill="white"/>
<path d="M33.2416 9.86773C33.2416 11.2739 32.1615 12.4071 30.8387 12.4071C29.5081 12.4071 28.4358 11.2656 28.4358 9.86773C28.4358 8.46157 29.5159 7.32837 30.8387 7.32837C32.1615 7.32837 33.2416 8.46984 33.2416 9.86773Z" fill="white"/>
</svg>
